<svg viewBox="0 0 512 768" xmlns="http://www.w3.org/2000/svg" role="img" aria-labelledby="placeholder-title">
  <title id="placeholder-title">Agent portrait unavailable</title>

  <!-- shoulders / torso -->
  <path
    d="M96 768 L108 566 C 114 508, 158 470, 210 458 L 302 458 C 354 470, 398 508, 404 566 L 416 768 Z"
    fill="#E4E7DF"
  />

  <!-- collar -->
  <path d="M212 440 L300 440 L282 462 L230 462 Z" fill="#B7BDB3" />

  <!-- neutral rounded hood -->
  <path
    d="M256 132
       L354 184
       C 368 192, 376 208, 374 224
       L 362 332
       C 358 356, 342 374, 320 382
       L 256 404
       L 192 382
       C 170 374, 154 356, 150 332
       L 138 224
       C 136 208, 144 192, 158 184
       Z"
    fill="#D6DAD1"
  />
  <path
    d="M256 132 L354 184 C 368 192, 376 208, 374 224 L 362 332 C 358 356, 342 374, 320 382 L 256 404 Z"
    fill="#8B9186"
    opacity="0.12"
  />

  <!-- neutral eyes -->
  <g fill="#8B9186">
    <circle cx="216" cy="276" r="14" />
    <circle cx="296" cy="276" r="14" />
  </g>
  <path d="M226 324 Q256 336 286 324" fill="none" stroke="#8B9186" stroke-width="6" stroke-linecap="round" />
</svg>
